# xmcd
#
# Track frame offsets:
#	150
#	13300
#	30472
#	45380
#	63360
#	79880
#	102362
#	123142
#	138682
#	158757
#
# Disc length: 2324 seconds
#
# Revision: 6
# Processed by: cddbd v1.5.2PL0 Copyright (c) Steve Scherf et al.
# Submitted via: dBpowerAMP V4.0
#
DISCID=7b09140a,7c09120a
DTITLE=Reba McEntire - Rumor Has It
DYEAR=1990
DGENRE=Country
TTITLE0=Climb That Mountain High
TTITLE1=Rumor Has It
TTITLE2=Waitin' For The Deal To Go Down
TTITLE3=You Lie
TTITLE4=Now You Tell Me
TTITLE5=Fancy
TTITLE6=Fallin' Out Of Love
TTITLE7=This Picture
TTITLE8=You Remember Me
TTITLE9=That's All She Wrote
EXTD=
EXTT0=
EXTT1=
EXTT2=
EXTT3=
EXTT4=
EXTT5=
EXTT6=
EXTT7=
EXTT8=
EXTT9=
PLAYORDER=
